<?xml version="1.0" ?><svg viewBox="0 0 32 32" xmlns="http://www.w3.org/2000/svg"><defs><style>.cls-1{fill:none;stroke:#000;stroke-linejoin:round;stroke-width:2px;}</style></defs><title/><g data-name="44-Antenna" id="_44-Antenna"><polyline class="cls-1" points="6 31 9 31 23 31 26 31"/><polyline class="cls-1" points="14 11 13.92 11.16 11 17 9 31 16 24 21 19"/><polyline class="cls-1" points="18 11 18.08 11.16 21 17 23 31 16 24 11 19"/><path class="cls-1" d="M18.08,11.16A3,3,0,0,0,19,9a3,3,0,0,0-6,0,3,3,0,0,0,5.08,2.16Z"/><path class="cls-1" d="M22,14a7,7,0,0,0,0-9.9"/><path class="cls-1" d="M10.05,4.05a7,7,0,0,0,0,9.9"/><path class="cls-1" d="M24,17c5.32-4.19,5.34-11.6,0-16"/><path class="cls-1" d="M8,1C2.66,5.36,2.67,12.77,8,17"/></g></svg>